<svg version="1.1" id="Layer_1"
	xmlns="http://www.w3.org/2000/svg"
	xmlns:xlink="http://www.w3.org/1999/xlink" x="0px" y="0px" viewBox="0 0 170.3 77.8" style="enable-background:new 0 0 170.3 77.8;" xml:space="preserve">
	<style type="text/css">
	.st0{fill:none;}
	.st1{fill:#FFFFFF;}
	</style>
	<g>
		<path class="st0" d="M103.1,14.6l0.1-0.2v-0.6c0-0.3,0-0.7,0-1.1h0V14.6z"/>
		<path class="st1" d="M90.9,67c0.7-0.8,1.1-1.4,1.1-1.7c0.2-0.4,0.9-2.6,1.1-3c0.1-0.9,0.3-2.1,0.3-3.3c0-0.7-0.1-1.4-0.2-2
		c-1.2-5.4-2.4-6.8-8.2-6.8c-1.2,0.3-2.2,0.7-3.1,1.1c-0.9,0.6-1.1,1-1.9,1.9c-0.1,0.6-0.9,0.8-0.9,1.1c0,0.4,0.2,0.9,0.2,1.4
		c0,0.4-0.1,0.8-0.1,1.2c0,0.6,0.1,1.3,0.6,2c0.3,1,0.4,2.3,0.9,3.1c0.4,0.8,1.1,1,1.6,1.7c1.1,1.1,1.1,1.2,2.7,1.9
		c0.8,0.3,1.3,0.3,2.1,0.6c0.7,0.1,1.3,0.6,1.9,0.6C89.4,67,90.2,67,90.9,67z"/>
		<path class="st1" d="M101.5,24.1c-0.9,0.2-2,0.4-3,0.4c-0.5,0-0.9,0-1.4-0.1c-1.9-0.2-2.5-0.4-4.3-1.6c-0.7-0.5-2-2.1-2.4-3.3
		c-0.3-0.8-0.4-1.5-0.4-2.2c0-1.2,0.4-2.4,1.1-3.3c0.2-0.3,1.3-1.5,2.4-1.5c1.4,0,2.3,0.9,2.3,2v0.5c-0.1,0.4-0.7,1.7-1.1,1.7
		c-1.1,0.7-1.2,1.1-1.2,1.8c0,1,0.4,2,2,2.6c0.7,0.3,1.3,0.4,2,0.4c0.9,0,1.7-0.2,2.6-0.6c1.1-0.5,1.2-0.9,1.5-1.9
		c0.1-0.4,1.1-1.2,1.1-2.3l0.6-1.9v-1.9h0c0-0.5-0.1-1.1-0.1-1.4c0-1.6-0.7-2.2-1.1-3.9c-1.8-3.2-4.3-4.5-8.3-5h-0.7
		c-1.1,0-2.8,0.1-2.9,0.1c-1.1,0.2-0.6,0.4-1.7,0.6c-1.3,0.3-1.5,1.6-2.7,2.1c-0.3,0.1-1.3,0.2-1.7,0.4s-0.9,1.3-1.2,1.7
		c-0.6,0.9-1.1,1.5-1.7,2.3c-0.8,1.3-1.8,4.8-1.8,7.1c0,0.5,0.1,1,0.2,1.3c0.5,1.7,0.3,3.3,0.9,4.8c0.3,1,0.9,1.1,1.3,2
		s0.4,1.7,1.1,2.5c0.4,0.4,1.1,0.5,1.4,1c0.3,0.3,0.1,0.3,0.4,0.6c0.3,0.2,0.7,0.3,0.9,0.4c1.6,0.8,2.4,2,3.4,3
		c0.5,0.5,0.8,1,0.8,1.5c0,0.4-0.1,0.9-0.4,1.2c-0.4,0.5-1.3,0.6-2,0.6c-1.3-0.2-2.7-0.3-3.7-0.7c-0.5-0.1-1.9-0.2-2.5-0.2h-1.5
		c-0.4,0-0.8,0-0.9-0.1c-0.2,0-0.3-0.1-0.5-0.1c-0.9,0-1.9,0.6-2.4,0.6c-0.8,0-1.4,0-2.3,0.1c-0.7,0.2-1.2,0.9-1.8,1.1
		c-0.9,0.4-1.3,0.2-2,0.4c-2,1-3.1,2.7-4.2,4.5c-0.5,1-1.8,1.3-2.4,2.1c-0.2,0.4-0.3,1-0.5,1.4c-0.3,0.2-0.6,0.3-0.9,0.6
		c-0.3,0.3-0.2,0.6-0.3,1h2.6v24.7c1.8,1.5,3.4,2.4,6.1,3.4l3.4,0.7c0.9,0.2,1.7,0.2,2.6,0.2c2.5,0,5-0.6,6.9-1.2
		c2.9-1.1,3.9-2,5.6-3.7c-1.3,0-2.9-0.4-4.1-0.8c-1.6-0.5-2.9-1.1-4-1.8c-0.9-0.5-2.1-1.2-2.7-1.9c-0.5-0.5-0.7-1.1-1.1-1.5
		c-0.9-1.3-1.5-2.7-2.1-4.5c-0.4-1-0.5-2-0.5-3c0-0.9,0.1-1.7,0.4-2.6c0.1-0.5,0-1.4,0.3-1.9c0.5-1.2,1.1-2,1.9-3
		c1.4-2.4,5.7-4.1,8.4-4.1c2.8,0,5.9,0.5,7.7,2.3c0.5,0.5,0.4,0.9,0.8,1.1c0.6,0.5,1.4,0.7,2,1.1c1.9,1.7,3,4.3,3.7,7
		c0.1,0.4,0.1,0.7,0.1,1c0,2.4,0.1,2.8,0.1,3.2c0,0.6-0.1,1-0.2,1.8c-0.1,0.6-0.4,0.9-0.7,1.7c1.4-1.2,2-2.5,2.7-4.1
		c0.1-0.3,0.9-1.6,1.1-1.9c0.2-0.5,0.3-0.9,0.3-1.1c0-0.4-0.1-0.7-0.1-1.1c0-0.2,0.1-0.5,0.1-0.7c0.1-0.4,0.1-0.8,0.1-1.1
		c0-1.3-0.3-2.8-0.5-4c-0.2-1.4-0.9-2.6-1.2-3.6c-0.6-1.4-1.4-1.9-2.7-2.4c-2.4-0.6-2.9-3.3-2.9-5.3c0-1,0.2-2.3,0.8-2.3
		c0.3,0,1.1,0.2,1.7,0.6c0.9,0.5,2.9,1,4.4,1.9c0.2,0.2,0.4,0.5,0.6,0.7V23.5C102.6,23.7,102.1,23.9,101.5,24.1z"/>
		<path class="st1" d="M167.4,21.7c-2-4.9-4.7-8.9-8.1-12.1c-3.4-3.2-7.5-5.6-12.2-7.2c-4.7-1.6-9.7-2.4-15.1-2.4H99.8
		c5.3,1.7,7.7,4.3,9.1,8.2c0.4,1.1,0.6,1.9,0.7,2.6c0.1,0.5,0.1,0.9,0.1,1.4c0,0.2,0,0.3,0,0.5H126c4.6,0,8.7,0.4,12.1,1.2
		s6.3,2.2,8.6,4.2c2.3,2,4,4.7,5.1,8.1s1.7,7.6,1.7,12.7s-0.6,9.4-1.7,12.7c-1.1,3.3-2.8,6-5.1,8.1s-5.1,3.4-8.6,4.2
		c-3.4,0.8-7.5,1.2-12.1,1.2h-22.8c-0.1,0.1-0.3,0.2-0.4,0.3c-1.7,1.4-4.1,2.8-6.2,3.6c-0.2,0.4-1.8,2-3,3.1c-2.1,1.9-4.3,3-6.2,3.9
		c-1.3,0.5-2.7,0.8-4.2,1.1c-1,0.2-2.1,0.4-3.1,0.6h2.8h2.5h46.6c5.4,0,10.5-0.8,15.1-2.4s8.7-4,12.2-7.2c3.4-3.2,6.2-7.2,8.1-12.1
		s3-10.6,3-17.2C170.3,32.3,169.4,26.5,167.4,21.7z"/>
		<path class="st1" d="M55.3,39l1-1c1.3-1.3,2.8-2.5,4.3-3.5h-22c-3.5,0-6.5-0.3-8.9-0.8s-4.2-1.3-5.6-2.3c-1.4-1-2.4-2.1-3-3.5
		s-0.9-2.8-0.9-4.4s0.3-3,0.9-4.4s1.6-2.5,3-3.5s3.2-1.8,5.6-2.3s5.3-0.8,8.9-0.8h25.6v20c3.7-1.6,8.1-2.5,14.1-2.5
		c0.3,0,0.5-0.2,0.5-0.4c0-0.1,0-0.2-0.1-0.3c-3.5-2.8-7.2-6.7-7.4-12.2c0-0.5-0.4-1.5-0.4-2c0-1.2,0.4-1.5,0.4-2.9
		c0-0.6,0.4-1.5,0.4-2.7c0-1.7,2.3-4.1,3.2-5.5c0.3-0.3,0.8-0.2,0.9-0.5c1.8-1.1,2.8-2.5,5.2-3.2c0.9-0.3,2.2-0.4,3.2-0.7H70.8l0,0
		h-36c-4.7,0-9,0.4-12.9,1.3s-7.1,2.2-9.9,4c-2.8,1.8-4.9,4.2-6.4,7.1c-1.5,2.9-2.2,6.5-2.2,10.7c0,6.5,1.9,11.5,5.8,14.9
		c3.8,3.5,9,5.8,15.5,7L5,73c-0.7,1-1.5,1.6-2.4,1.8C1.6,75,0.8,75.1,0,75.1v2.7h27.6v-2.7c-0.9,0-1.6-0.2-2.3-0.4
		c-0.6-0.3-1-0.7-1-1.2s0.2-1.1,0.6-1.7c0.4-0.6,1-1.5,1.8-2.6L43,46.1h7.6c0.6-1.6,1.6-2.8,2.3-3.9C53.9,40.9,53.9,40.1,55.3,39z" />
		<path class="st1" d="M59.7,75.1v2.7h12.1c-3.6-0.5-6.9-1.6-9.4-3C61.8,75,60.9,75.1,59.7,75.1z"/>
	</g>
</svg>
